<?xml version="1.0" encoding="utf-8"?>
<!-- Generator: Adobe Illustrator 26.3.1, SVG Export Plug-In . SVG Version: 6.00 Build 0)  -->
<svg version="1.1" id="Layer_1" xmlns="http://www.w3.org/2000/svg" xmlns:xlink="http://www.w3.org/1999/xlink" x="0px" y="0px"
	 viewBox="0 0 239.1 88.9" style="enable-background:new 0 0 239.1 88.9;" xml:space="preserve">
<style type="text/css">
	.st0{fill:none;}
	.st1{fill:#F04A41;}
	.st2{fill:#231F20;}
	.st3{fill:#FFFFFF;}
</style>
<rect y="-14.1" class="st0" width="239.1" height="117.1"/>
<circle class="st1" cx="180.6" cy="44.5" r="44.4"/>
<path class="st2" d="M14.2,34.4v-6h5.4v-2.5c-0.1-2.6,0.9-5.2,2.7-7.1c1.8-1.8,4.5-2.8,8.2-2.8c0.8,0,1.6,0,2.4,0.1s1.6,0.1,2.3,0.2
	V23c-1.1-0.1-2.2-0.2-3.3-0.2c-1-0.1-1.9,0.2-2.6,0.8c-0.6,0.8-0.9,1.8-0.8,2.9v2h6.2v6h-6.2V61h-8.9V34.4H14.2z"/>
<path class="st2" d="M36.6,38.5c0-1.9,0.6-3.7,1.6-5.2c0.9-1.4,2.1-2.5,3.5-3.3c1.5-0.9,3.1-1.5,4.8-1.8c1.8-0.4,3.6-0.5,5.4-0.5
	c1.7,0,3.3,0.1,5,0.3c1.6,0.2,3.1,0.7,4.6,1.4c1.3,0.6,2.5,1.6,3.4,2.8c0.9,1.4,1.4,3.1,1.3,4.8v16.9c0,1.4,0.1,2.8,0.2,4.2
	c0.1,1,0.4,2.1,0.9,3h-9.1c-0.2-0.5-0.3-1-0.4-1.5c-0.1-0.5-0.2-1-0.2-1.5c-1.4,1.4-3.1,2.5-5,3.1s-3.9,0.9-5.9,0.9
	c-1.5,0-2.9-0.2-4.3-0.6c-1.3-0.3-2.5-0.9-3.5-1.8c-1-0.8-1.8-1.8-2.4-3c-0.6-1.4-0.9-2.8-0.8-4.3c-0.1-1.6,0.3-3.2,1-4.6
	c0.6-1.1,1.5-2.1,2.5-2.9c1.1-0.7,2.3-1.3,3.5-1.6c1.3-0.4,2.7-0.6,4-0.9c1.3-0.2,2.7-0.4,4-0.5c1.2-0.1,2.3-0.3,3.5-0.6
	c0.9-0.2,1.7-0.6,2.4-1.1c0.6-0.5,0.9-1.3,0.8-2.1c0-0.8-0.1-1.6-0.5-2.3c-0.3-0.5-0.7-1-1.3-1.3s-1.2-0.5-1.8-0.6
	c-0.7-0.1-1.5-0.2-2.2-0.2c-1.5-0.1-2.9,0.3-4.2,1.1c-1.1,0.9-1.8,2.3-1.8,3.8L36.6,38.5z M57.3,45.1c-0.4,0.4-0.9,0.6-1.4,0.8
	c-0.6,0.2-1.2,0.4-1.8,0.5c-0.7,0.1-1.3,0.2-2,0.3S50.7,46.9,50,47c-0.7,0.1-1.3,0.3-2,0.5c-0.6,0.2-1.2,0.5-1.7,0.8
	c-0.5,0.4-0.9,0.8-1.1,1.4c-0.3,0.6-0.5,1.4-0.4,2.1c0,0.7,0.1,1.4,0.4,2c0.3,0.5,0.7,1,1.2,1.3s1.1,0.5,1.8,0.7
	c0.7,0.1,1.4,0.2,2,0.2c1.4,0.1,2.8-0.2,4.1-0.9c0.9-0.5,1.6-1.2,2.2-2.1c0.4-0.8,0.7-1.6,0.8-2.5c0.1-0.7,0.1-1.3,0.2-2v-3.4H57.3z
	"/>
<path class="st2" d="M80.8,28.5v32.6h-8.9V28.5H80.8z"/>
<path class="st2" d="M111.1,16v16.9h0.2c1-1.8,2.5-3.2,4.3-4.1c1.6-0.8,3.4-1.3,5.2-1.3c2-0.1,4,0.3,5.9,1c1.4,0.6,2.7,1.5,3.6,2.7
	c0.9,1.3,1.6,2.7,1.9,4.2c0.4,1.8,0.6,3.7,0.5,5.5v20h-9V42.6c0.1-2.1-0.3-4.2-1.3-6c-0.8-1.3-2.3-2-4.5-2c-2.4,0-4.2,0.7-5.3,2.2
	c-1.1,1.4-1.6,3.8-1.6,7.2v17.1h-8.9v-45L111.1,16z"/>
<path class="st3" d="M173.5,28.2v5.4h-11.7v7.7h11v5.4h-11V61h-6.6V28.2H173.5z"/>
<path class="st3" d="M186.4,28.2l4.7,23.2h0.1l4.7-23.2h9.8v32.9h-6.1V34.8h-0.1L193.7,61h-5.1l-5.8-26.2h-0.1V61h-6.1V28.2H186.4z"
	/>
<path class="st2" d="M19.5,77.5v-7.9H22c0.7,0,1.3,0.2,1.8,0.6s0.7,1,0.7,1.7c0,0.4-0.1,0.8-0.3,1.2c-0.2,0.3-0.6,0.6-0.9,0.8
	c-0.6,0.2-1.1,0.3-1.7,0.2h-0.8v3.4L19.5,77.5z M21.8,70.6h-1.2v2.5h1.2c0.4,0,0.8-0.1,1.1-0.3c0.3-0.2,0.4-0.6,0.4-0.9
	C23.3,71,22.8,70.6,21.8,70.6z"/>
<path class="st2" d="M29.5,69.5c1.1,0,2.2,0.4,3,1.2c0.8,0.7,1.2,1.8,1.2,2.9s-0.4,2.1-1.2,2.9s-1.9,1.2-3.1,1.1
	c-1.1,0-2.2-0.4-3-1.1s-1.2-1.8-1.2-2.8c0-1.1,0.4-2.1,1.2-2.9C27.3,69.9,28.4,69.5,29.5,69.5z M29.5,70.6c-0.8,0-1.6,0.3-2.2,0.8
	c-0.6,0.6-0.9,1.3-0.9,2.2c0,0.8,0.3,1.6,0.9,2.1c1.2,1.1,3.1,1.1,4.4,0c0.6-0.6,0.9-1.3,0.9-2.1c0-0.8-0.3-1.6-0.9-2.1
	C31.1,70.9,30.4,70.6,29.5,70.6L29.5,70.6z"/>
<path class="st2" d="M37.3,74.2l-0.8-0.5c-0.4-0.2-0.8-0.6-1.1-1c-0.2-0.3-0.3-0.7-0.4-1.1c0-0.6,0.2-1.1,0.6-1.5
	c0.5-0.4,1.1-0.6,1.7-0.6c0.6,0,1.3,0.2,1.8,0.6v1.3c-0.5-0.5-1.1-0.8-1.8-0.8c-0.3,0-0.6,0.1-0.9,0.3c-0.2,0.1-0.3,0.4-0.3,0.7
	c0,0.2,0.1,0.5,0.3,0.7c0.2,0.3,0.5,0.5,0.8,0.7l0.9,0.5c0.8,0.4,1.4,1.3,1.4,2.2c0,0.6-0.2,1.1-0.6,1.5c-0.4,0.4-1,0.6-1.6,0.6
	c-0.8,0-1.5-0.2-2.1-0.7v-1.4c0.5,0.7,1.3,1.1,2.1,1.2c0.3,0,0.6-0.1,0.9-0.3c0.2-0.2,0.4-0.5,0.3-0.7C38.4,75.1,38,74.6,37.3,74.2z
	"/>
<path class="st2" d="M40.9,69.6H42v7.8h-1.1V69.6z"/>
<path class="st2" d="M43.3,69.6h6.6v1h-2.7v6.9H46v-6.9h-2.7V69.6z"/>
<path class="st2" d="M51.2,69.6h1.1v7.8h-1.1V69.6z"/>
<path class="st2" d="M59.3,69.6h1.1l-3.3,7.9h-0.3l-3.4-7.9h1.1l2.4,5.5L59.3,69.6z"/>
<path class="st2" d="M61.5,69.6H66v1h-3.4V73h3.2v1h-3.2v2.4H66v1h-4.5C61.5,77.4,61.5,69.6,61.5,69.6z"/>
<path class="st2" d="M67.5,69.6h1.1v6.8h3.5v1h-4.7L67.5,69.6L67.5,69.6z"/>
<path class="st2" d="M76.8,69.6h1.4l-2.9,3.7v4.2h-1.1v-4.2l-2.9-3.7h1.3l2.1,2.7L76.8,69.6z"/>
<path class="st2" d="M82.8,77.5v-7.8h2.6c0.9,0,1.7,0.1,2.5,0.5c0.6,0.3,1.1,0.8,1.5,1.4s0.6,1.3,0.6,2c0,0.5-0.1,1-0.3,1.5
	c-0.4,1-1.2,1.7-2.2,2.1c-0.3,0.1-0.5,0.2-0.8,0.2c-0.5,0.1-0.9,0.1-1.4,0.1L82.8,77.5z M85.3,70.6h-1.4v5.8h1.4
	c0.4,0,0.9,0,1.3-0.1c0.3-0.1,0.5-0.2,0.8-0.3c0.2-0.1,0.4-0.3,0.6-0.4c0.5-0.6,0.8-1.3,0.8-2.1c0-0.8-0.3-1.5-0.8-2.1
	c-0.2-0.2-0.5-0.4-0.7-0.5s-0.5-0.2-0.8-0.2C86.1,70.6,85.7,70.6,85.3,70.6z"/>
<path class="st2" d="M91.6,69.6h1.1v7.8h-1.1V69.6z"/>
<path class="st2" d="M94.7,69.6h4.2v1h-3.1v2.2h3.1v1h-3.1v3.7h-1.1V69.6z"/>
<path class="st2" d="M100.4,69.6h4.2v1h-3.1v2.2h3.1v1h-3.1v3.7h-1.1V69.6z"/>
<path class="st2" d="M106,69.6h4.4v1h-3.3V73h3.2v1h-3.2v2.4h3.4v1H106V69.6z"/>
<path class="st2" d="M112,77.5v-7.8h2c0.7,0,1.3,0.2,1.9,0.6c0.8,0.7,0.9,1.9,0.3,2.8c-0.2,0.4-0.6,0.6-1,0.8
	c0.3,0.2,0.5,0.4,0.7,0.7c0.4,0.5,0.7,1,1,1.5c0.3,0.4,0.5,0.8,0.7,1l0.4,0.6h-1.3l-0.3-0.5c0,0,0-0.1-0.1-0.1l-0.2-0.3l-0.3-0.6
	l-0.4-0.6c-0.2-0.3-0.4-0.5-0.6-0.8c-0.2-0.2-0.3-0.3-0.5-0.4s-0.5-0.1-0.8-0.1h-0.3v3.4L112,77.5z M113.5,70.6h-0.3v2.5h0.4
	c0.4,0,0.8,0,1.2-0.2c0.2-0.1,0.4-0.2,0.5-0.4c0.1-0.2,0.2-0.4,0.2-0.7c0-0.2-0.1-0.5-0.2-0.7s-0.3-0.4-0.6-0.4
	C114.3,70.6,113.9,70.6,113.5,70.6L113.5,70.6z"/>
<path class="st2" d="M119.2,69.6h4.4v1h-3.3V73h3.2v1h-3.2v2.4h3.4v1h-4.6L119.2,69.6L119.2,69.6z"/>
<path class="st2" d="M131.4,69.6h1.1v7.8h-1l-5.2-6v6h-1.1v-7.8h0.9l5.3,6.1L131.4,69.6z"/>
<path class="st2" d="M133.7,69.6h6.6v1h-2.7v6.9h-1.1v-6.9h-2.7v-1H133.7z"/>
<path class="st1" d="M95.1,20c-1.2,0-2.1,0.9-2.3,2l-1.5,12.1L89.1,2.2C89,1,88,0,86.7,0c-1.1,0-2,0.8-2.1,1.9l-3.4,17.9h-0.9
	l-1.4-3.6c-0.5-1.2-1.8-1.8-3-1.3c-0.6,0.2-1,0.7-1.3,1.2l-1.7,3.8h-7.7c-1.3,0.1-2.2,1.2-2.1,2.4c0.1,1.2,1,2.1,2.1,2.1h9.2
	c0.9,0,1.7-0.5,2.1-1.4l0,0c0.4,0.9,1.2,1.4,2.2,1.4l4.4-0.1c1.1,0,2-0.8,2.2-1.9l0.5-2.4l2.7,38.4c0.1,1.2,1,2.1,2.2,2.1h0.1
	c1.2,0,2.1-0.9,2.3-2l4.1-34h5v-4.7h-7.1V20z"/>
</svg>
